<svg xmlns="http://www.w3.org/2000/svg" xmlns:xlink="http://www.w3.org/1999/xlink" width="120" zoomAndPan="magnify" viewBox="0 0 90 89.999999" height="120" preserveAspectRatio="xMidYMid meet" version="1.0"><defs><g/><clipPath id="621cb8b9cb"><path d="M 0.578125 0.410156 L 67.464844 0.410156 L 67.464844 33.527344 L 0.578125 33.527344 Z M 0.578125 0.410156 " clip-rule="nonzero"/></clipPath><clipPath id="054c5fa7d7"><path d="M 22.871094 1.804688 C 26.289062 0.960938 30.195312 0.410156 34.019531 0.410156 C 37.84375 0.410156 41.519531 0.882812 44.914062 1.726562 C 44.984375 1.753906 45.054688 1.753906 45.128906 1.78125 C 57.863281 5.15625 67.242188 14.070312 67.421875 23.898438 L 67.421875 33.527344 L 0.578125 33.527344 L 0.578125 23.90625 C 0.757812 14.015625 9.992188 5.101562 22.871094 1.804688 Z M 22.871094 1.804688 " clip-rule="nonzero"/></clipPath><clipPath id="b1afc242aa"><path d="M 0.578125 0.410156 L 67.464844 0.410156 L 67.464844 33.527344 L 0.578125 33.527344 Z M 0.578125 0.410156 " clip-rule="nonzero"/></clipPath><clipPath id="88c39b2de2"><path d="M 22.871094 1.804688 C 26.289062 0.960938 30.195312 0.410156 34.019531 0.410156 C 37.84375 0.410156 41.519531 0.882812 44.914062 1.726562 C 44.984375 1.753906 45.054688 1.753906 45.128906 1.78125 C 57.863281 5.15625 67.242188 14.070312 67.421875 23.898438 L 67.421875 33.527344 L 0.578125 33.527344 L 0.578125 23.90625 C 0.757812 14.015625 9.992188 5.101562 22.871094 1.804688 Z M 22.871094 1.804688 " clip-rule="nonzero"/></clipPath><clipPath id="2f3cfad228"><rect x="0" width="68" y="0" height="34"/></clipPath><clipPath id="5958d26030"><rect x="0" width="68" y="0" height="82"/></clipPath></defs><g transform="matrix(1, 0, 0, 1, 11, 8)"><g clip-path="url(#5958d26030)"><g fill="#000000" fill-opacity="1"><g transform="translate(13.75626, 75.66776)"><g><path d="M 37.5625 -49.8125 L 37.5625 -43.140625 L 24.296875 -43.140625 L 24.296875 0 L 16.125 0 L 16.125 -43.140625 L 2.796875 -43.140625 L 2.796875 -49.8125 Z M 37.5625 -49.8125 "/></g></g></g><g clip-path="url(#621cb8b9cb)"><g clip-path="url(#054c5fa7d7)"><g transform="matrix(1, 0, 0, 1, -0.000000000000001776, -0.000000000000008882)"><g clip-path="url(#2f3cfad228)"><g clip-path="url(#b1afc242aa)"><g clip-path="url(#88c39b2de2)"><path fill="#bc4800" d="M 0.578125 0.410156 L 67.464844 0.410156 L 67.464844 33.527344 L 0.578125 33.527344 Z M 0.578125 0.410156 " fill-opacity="1" fill-rule="nonzero"/></g></g></g></g></g></g></g></g></svg>