<svg xmlns="http://www.w3.org/2000/svg" viewBox="0 0 512 512" width="100%" height="100%">
  <rect width="512" height="512" fill="#FFFFFF"/>
  <!-- Batang Pohon Kiara Payung -->
  <path d="M256 260 C256 310 252 380 250 440 C242 445 220 455 200 458 C215 450 240 445 246 435 C248 385 250 320 250 270 Z" fill="#422918"/>
  <path d="M256 260 C256 310 260 380 262 440 C270 445 292 455 312 458 C297 450 272 445 266 435 C264 385 262 320 262 270 Z" fill="#362012"/>
  <path d="M256 320 C240 280 210 250 180 230 C190 235 220 265 252 300 Z" fill="#422918"/>
  <path d="M256 310 C275 275 305 245 332 225 C320 232 290 262 260 295 Z" fill="#362012"/>
  
  <!-- Tajuk Payung Rindang Lebat (Fern Umbrella Canopy) -->
  <!-- Layer Belakang Gelap -->
  <ellipse cx="256" cy="190" rx="190" ry="110" fill="#1A382B"/>
  <ellipse cx="170" cy="195" rx="90" ry="65" fill="#153125"/>
  <ellipse cx="342" cy="195" rx="90" ry="65" fill="#132B20"/>
  
  <!-- Layer Tengah Tajuk Menyirip Kiara Payung -->
  <ellipse cx="256" cy="175" rx="175" ry="95" fill="#234C3A"/>
  <ellipse cx="140" cy="185" rx="75" ry="55" fill="#1E4233"/>
  <ellipse cx="372" cy="185" rx="75" ry="55" fill="#1E4233"/>
  <ellipse cx="200" cy="145" rx="85" ry="60" fill="#2C5F49"/>
  <ellipse cx="312" cy="145" rx="85" ry="60" fill="#2C5F49"/>
  <ellipse cx="256" cy="130" rx="90" ry="65" fill="#346F55"/>
  
  <!-- Tekstur Daun Menyirip Halus Rindang -->
  <ellipse cx="110" cy="190" rx="40" ry="30" fill="#3B7C60"/>
  <ellipse cx="160" cy="205" rx="45" ry="32" fill="#3B7C60"/>
  <ellipse cx="220" cy="210" rx="45" ry="30" fill="#3B7C60"/>
  <ellipse cx="292" cy="210" rx="45" ry="30" fill="#3B7C60"/>
  <ellipse cx="352" cy="205" rx="45" ry="32" fill="#3B7C60"/>
  <ellipse cx="402" cy="190" rx="40" ry="30" fill="#3B7C60"/>
  <ellipse cx="160" cy="150" rx="50" ry="35" fill="#448E6E"/>
  <ellipse cx="256" cy="120" rx="65" ry="42" fill="#448E6E"/>
  <ellipse cx="352" cy="150" rx="50" ry="35" fill="#448E6E"/>
  <ellipse cx="210" cy="135" rx="45" ry="30" fill="#4DA07D"/>
  <ellipse cx="302" cy="135" rx="45" ry="30" fill="#4DA07D"/>
</svg>
